<svg width="197" height="81" viewBox="0 0 197 81" fill="none" xmlns="http://www.w3.org/2000/svg">
<path d="M197 16.1194C197 7.2169 191.766 0 185.309 0H11.6914C5.23441 0 0 7.2169 0 16.1194V49.1642C0 58.0667 5.23441 65.2836 11.6914 65.2836H185.309C191.766 65.2836 197 58.0667 197 49.1642V16.1194Z" fill="white"/>
<path d="M196.708 81V48.3582L167.479 63.6716C180.34 64.3164 194.954 73.4776 196.708 81Z" fill="white"/>
<path d="M49.269 34.5714H53.5547V38.8571H51.4118V41H40.6975V38.8571H38.5547V21.7143H40.6975V19.5714H51.4118V21.7143H53.5547V26H49.269V23.8571H44.9833V26H42.8404V34.5714H44.9833V36.7143H49.269V34.5714ZM55.7031 26H57.846V23.8571H59.9888V21.7143H62.1317V19.5714H64.2746V21.7143H66.4174V23.8571H68.5603V26H70.7031V41H66.4174V36.7143H59.9888V41H55.7031V26ZM59.9888 32.4286H66.4174V28.1429H64.2746V26H62.1317V28.1429H59.9888V32.4286ZM77.1373 36.7143H83.5658V41H72.8516V19.5714H77.1373V36.7143ZM89.9888 36.7143H96.4174V41H85.7031V19.5714H89.9888V36.7143ZM115.681 30.2857H113.538V28.1429H111.395V41H107.109V19.5714H111.395V21.7143H113.538V23.8571H115.681V26H117.824V23.8571H119.967V21.7143H122.109V19.5714H126.395V41H122.109V28.1429H119.967V30.2857H117.824V32.4286H115.681V30.2857ZM132.84 36.7143H141.412V41H128.555V19.5714H141.412V23.8571H132.84V28.1429H139.269V32.4286H132.84V36.7143ZM143.555 19.5714H147.84V34.5714H143.555V19.5714ZM143.555 36.7143H147.84V41H143.555V36.7143ZM150 19.5714H154.286V34.5714H150V19.5714ZM150 36.7143H154.286V41H150V36.7143Z" fill="#FF11A4"/>
</svg>
