<svg width="304" height="93" viewBox="0 0 304 93" fill="none" xmlns="http://www.w3.org/2000/svg">
<path d="M0 18.5075C0 8.28607 8.07747 0 18.0415 0H285.958C295.923 0 304 8.28607 304 18.5075V56.4478C304 66.6692 295.923 74.9552 285.958 74.9552H18.0415C8.07747 74.9552 0 66.6692 0 56.4478V18.5075Z" fill="white"/>
<path d="M0.451039 93V55.5224L45.5549 73.1045C25.7092 73.8448 3.15727 84.3632 0.451039 93Z" fill="white"/>
<path d="M74.5714 40.5714H72.4286V36.2857H70.2857V47H66V25.5714H72.4286V29.8571H74.5714V34.1429H76.7143V38.4286H78.8571V25.5714H83.1429V47H76.7143V44.8571H74.5714V40.5714ZM85.2969 27.7143H87.4397V25.5714H98.154V27.7143H100.297V44.8571H98.154V47H87.4397V44.8571H85.2969V27.7143ZM93.8683 40.5714H96.0112V32H93.8683V29.8571H91.7254V32H89.5826V40.5714H91.7254V42.7143H93.8683V40.5714ZM106.731 29.8571H102.445V25.5714H115.302V29.8571H111.017V47H106.731V29.8571ZM117.445 25.5714H121.731V47H117.445V25.5714ZM134.605 40.5714H138.891V44.8571H136.748V47H126.033V44.8571H123.891V27.7143H126.033V25.5714H136.748V27.7143H138.891V32H134.605V29.8571H130.319V32H128.176V40.5714H130.319V42.7143H134.605V40.5714ZM145.325 42.7143H153.896V47H141.039V25.5714H153.896V29.8571H145.325V34.1429H151.753V38.4286H145.325V42.7143ZM173.165 36.2857H171.022V34.1429H168.879V47H164.594V25.5714H168.879V27.7143H171.022V29.8571H173.165V32H175.308V29.8571H177.451V27.7143H179.594V25.5714H183.879V47H179.594V34.1429H177.451V36.2857H175.308V38.4286H173.165V36.2857ZM190.325 42.7143H198.896V47H186.039V25.5714H198.896V29.8571H190.325V34.1429H196.753V38.4286H190.325V42.7143ZM201.039 25.5714H205.325V40.5714H201.039V25.5714ZM201.039 42.7143H205.325V47H201.039V42.7143ZM207.484 25.5714H211.77V40.5714H207.484V25.5714ZM207.484 42.7143H211.77V47H207.484V42.7143ZM213.93 25.5714H218.215V40.5714H213.93V25.5714ZM213.93 42.7143H218.215V47H213.93V42.7143ZM220.375 25.5714H224.661V40.5714H220.375V25.5714ZM220.375 42.7143H224.661V47H220.375V42.7143Z" fill="#FF11A4"/>
</svg>
