<svg width="308" height="147" viewBox="0 0 308 147" fill="none" xmlns="http://www.w3.org/2000/svg">
<path d="M0 29.2537C0 13.0973 8.10404 0 18.1009 0H286.899C296.896 0 305 13.0973 305 29.2537V89.2239C305 105.38 296.896 118.478 286.899 118.478H18.1009C8.10404 118.478 0 105.38 0 89.2239V29.2537Z" fill="white"/>
<path d="M0.452522 147V87.7612L45.7047 115.552C25.7938 116.722 3.16766 133.348 0.452522 147Z" fill="white"/>
<path d="M30 22.5714H34.2857V44H30V22.5714ZM45 22.5714H49.2857V37.5714H53.5714V22.5714H57.8571V37.5714H62.1429V22.5714H66.4286V39.7143H64.2857V41.8571H62.1429V44H60V41.8571H57.8571V39.7143H53.5714V41.8571H51.4286V44H49.2857V41.8571H47.1429V39.7143H45V22.5714ZM68.5547 22.5714H72.8404V44H68.5547V22.5714ZM79.2857 39.7143H85.7143V44H75V22.5714H79.2857V39.7143ZM92.1373 39.7143H98.5658V44H87.8516V22.5714H92.1373V39.7143ZM109.258 22.5714H113.544V37.5714H117.829V22.5714H122.115V37.5714H126.401V22.5714H130.686V39.7143H128.544V41.8571H126.401V44H124.258V41.8571H122.115V39.7143H117.829V41.8571H115.686V44H113.544V41.8571H111.401V39.7143H109.258V22.5714ZM132.812 29H134.955V26.8571H137.098V24.7143H139.241V22.5714H141.384V24.7143H143.527V26.8571H145.67V29H147.812V44H143.527V39.7143H137.098V44H132.812V29ZM137.098 35.4286H143.527V31.1429H141.384V29H139.241V31.1429H137.098V35.4286ZM149.961 22.5714H154.247V44H149.961V22.5714ZM160.692 26.8571H156.406V22.5714H169.263V26.8571H164.978V44H160.692V26.8571ZM184.247 31.1429H190.675V35.4286H184.247V44H179.961V22.5714H192.818V26.8571H184.247V31.1429ZM194.961 24.7143H197.104V22.5714H207.818V24.7143H209.961V41.8571H207.818V44H197.104V41.8571H194.961V24.7143ZM203.532 37.5714H205.675V29H203.532V26.8571H201.39V29H199.247V37.5714H201.39V39.7143H203.532V37.5714ZM212.109 22.5714H224.967V24.7143H227.109V33.2857H224.967V35.4286H227.109V44H222.824V37.5714H216.395V44H212.109V22.5714ZM222.824 33.2857V26.8571H216.395V33.2857H222.824ZM36.4286 67.5714H34.2857V65.4286H32.1429V63.2857H30V52.5714H34.2857V61.1429H36.4286V63.2857H40.7143V61.1429H42.8571V52.5714H47.1429V63.2857H45V65.4286H42.8571V67.5714H40.7143V74H36.4286V67.5714ZM49.2969 54.7143H51.4397V52.5714H62.154V54.7143H64.2969V71.8571H62.154V74H51.4397V71.8571H49.2969V54.7143ZM57.8683 67.5714H60.0112V59H57.8683V56.8571H55.7254V59H53.5826V67.5714H55.7254V69.7143H57.8683V67.5714ZM75.0167 67.5714H77.1596V52.5714H81.4453V71.8571H79.3025V74H68.5882V71.8571H66.4453V52.5714H70.731V67.5714H72.8739V69.7143H75.0167V67.5714ZM96.4342 56.8571H92.1484V52.5714H105.006V56.8571H100.72V74H96.4342V56.8571ZM107.148 54.7143H109.291V52.5714H120.006V54.7143H122.148V71.8571H120.006V74H109.291V71.8571H107.148V54.7143ZM115.72 67.5714H117.863V59H115.72V56.8571H113.577V59H111.434V67.5714H113.577V69.7143H115.72V67.5714ZM132.852 52.5714H145.709V54.7143H147.852V65.4286H145.709V67.5714H137.137V74H132.852V52.5714ZM143.566 56.8571H137.137V63.2857H143.566V56.8571ZM150 59H152.143V56.8571H154.286V54.7143H156.429V52.5714H158.571V54.7143H160.714V56.8571H162.857V59H165V74H160.714V69.7143H154.286V74H150V59ZM154.286 65.4286H160.714V61.1429H158.571V59H156.429V61.1429H154.286V65.4286ZM173.577 67.5714H171.434V65.4286H169.291V63.2857H167.148V52.5714H171.434V61.1429H173.577V63.2857H177.863V61.1429H180.006V52.5714H184.291V63.2857H182.148V65.4286H180.006V67.5714H177.863V74H173.577V67.5714ZM30 89H32.1429V86.8571H34.2857V84.7143H36.4286V82.5714H38.5714V84.7143H40.7143V86.8571H42.8571V89H45V104H40.7143V99.7143H34.2857V104H30V89ZM34.2857 95.4286H40.7143V91.1429H38.5714V89H36.4286V91.1429H34.2857V95.4286ZM51.4342 86.8571H47.1484V82.5714H60.0056V86.8571H55.7199V104H51.4342V86.8571ZM66.4342 86.8571H62.1484V82.5714H75.0056V86.8571H70.7199V104H66.4342V86.8571ZM81.4342 99.7143H90.0056V104H77.1484V82.5714H90.0056V86.8571H81.4342V91.1429H87.8627V95.4286H81.4342V99.7143ZM100.72 97.5714H98.577V93.2857H96.4342V104H92.1484V82.5714H98.577V86.8571H100.72V91.1429H102.863V95.4286H105.006V82.5714H109.291V104H102.863V101.857H100.72V97.5714ZM115.731 86.8571H111.445V82.5714H124.302V86.8571H120.017V104H115.731V86.8571ZM126.445 82.5714H130.731V104H126.445V82.5714ZM132.891 84.7143H135.033V82.5714H145.748V84.7143H147.891V101.857H145.748V104H135.033V101.857H132.891V84.7143ZM141.462 97.5714H143.605V89H141.462V86.8571H139.319V89H137.176V97.5714H139.319V99.7143H141.462V97.5714ZM158.61 97.5714H156.468V93.2857H154.325V104H150.039V82.5714H156.468V86.8571H158.61V91.1429H160.753V95.4286H162.896V82.5714H167.182V104H160.753V101.857H158.61V97.5714ZM177.891 84.7143H180.033V82.5714H190.748V84.7143H192.891V101.857H190.748V104H180.033V101.857H177.891V84.7143ZM186.462 97.5714H188.605V89H186.462V86.8571H184.319V89H182.176V97.5714H184.319V99.7143H186.462V97.5714ZM203.61 97.5714H201.468V93.2857H199.325V104H195.039V82.5714H201.468V86.8571H203.61V91.1429H205.753V95.4286H207.896V82.5714H212.182V104H205.753V101.857H203.61V97.5714ZM231.462 93.2857H229.319V91.1429H227.176V104H222.891V82.5714H227.176V84.7143H229.319V86.8571H231.462V89H233.605V86.8571H235.748V84.7143H237.891V82.5714H242.176V104H237.891V91.1429H235.748V93.2857H233.605V95.4286H231.462V93.2857ZM248.622 99.7143H257.193V104H244.336V82.5714H257.193V86.8571H248.622V91.1429H255.05V95.4286H248.622V99.7143ZM259.336 82.5714H263.622V97.5714H259.336V82.5714ZM259.336 99.7143H263.622V104H259.336V99.7143Z" fill="#FF11A4"/>
</svg>
